<?xml version="1.0" encoding="UTF-8"?>
<svg width="234px" height="301px" viewBox="0 0 234 301" version="1.1" xmlns="http://www.w3.org/2000/svg" xmlns:xlink="http://www.w3.org/1999/xlink">
    <!-- Generator: Sketch 44 (41411) - http://www.bohemiancoding.com/sketch -->
    <title>Combined Shape</title>
    <desc>Created with Sketch.</desc>
    <defs></defs>
    <g id="Landing" stroke="none" stroke-width="1" fill="none" fill-rule="evenodd">
        <g id="Artboard" transform="translate(-73.000000, 0.000000)" fill-rule="nonzero" fill="#FFFFFF">
            <g id="Group" transform="translate(0.000000, -6.000000)">
                <path d="M0,14 L0,0 L210,0 L210,14 L0,14 Z M0,34 L0,20 L240,20 L240,34 L0,34 Z M0,54 L0,40 L280,40 L280,54 L0,54 Z M0,74 L0,60 L340,60 L340,74 L0,74 Z M0,94 L0,80 L180,80 L180,94 L0,94 Z M0,114 L0,100 L14,100 L14,114 L0,114 Z M0,134 L0,120 L14,120 L14,134 L0,134 Z M0,154 L0,140 L14,140 L14,154 L0,154 Z M0,174 L0,160 L150,160 L150,174 L0,174 Z M0,194 L0,180 L240,180 L240,194 L0,194 Z M0,214 L0,200 L280,200 L280,214 L0,214 Z M0,234 L0,220 L180,220 L180,234 L0,234 Z M0,254 L0,240 L14,240 L14,254 L0,254 Z M0,274 L0,260 L14,260 L14,274 L0,274 Z" id="Combined-Shape" transform="translate(170.000000, 137.000000) rotate(90.000000) translate(-170.000000, -137.000000) "></path>
            </g>
        </g>
    </g>
</svg>